<svg width="477" height="360" viewBox="0 0 477 360" fill="none" xmlns="http://www.w3.org/2000/svg">
<g opacity="0.04">
<path d="M406.562 307.819C401.103 307.819 395.947 310.21 392.173 314.155C356.828 351.102 307.034 374.113 251.866 374.113C144.642 374.113 57.7206 287.191 57.7206 179.968C57.7206 72.7445 144.642 -14.1771 251.866 -14.1771C315.123 -14.1771 371.314 16.0761 406.76 62.903C410.548 67.9076 416.367 71.0572 422.643 71.0572H447.867C461.83 71.0572 470.855 56.4948 463.321 44.7383C418.713 -24.8691 340.677 -71 251.866 -71C113.26 -71 0.897461 41.3621 0.897461 179.968C0.897461 318.573 113.26 430.936 251.866 430.936C331.856 430.936 403.106 393.513 449.063 335.22C458.152 323.692 449.294 307.819 434.614 307.819H406.562Z" fill="white"/>
<path d="M451.784 134.146L472.183 171.444L509.481 191.843L472.183 212.242L451.784 249.54L431.386 212.242L394.088 191.843L431.386 171.444L451.784 134.146Z" fill="white"/>
<path d="M406.562 307.819C401.103 307.819 395.947 310.21 392.173 314.155C356.828 351.102 307.034 374.113 251.866 374.113C144.642 374.113 57.7206 287.191 57.7206 179.968C57.7206 72.7445 144.642 -14.1771 251.866 -14.1771C315.123 -14.1771 371.314 16.0761 406.76 62.903C410.548 67.9076 416.367 71.0572 422.643 71.0572H447.867C461.83 71.0572 470.855 56.4948 463.321 44.7383C418.713 -24.8691 340.677 -71 251.866 -71C113.26 -71 0.897461 41.3621 0.897461 179.968C0.897461 318.573 113.26 430.936 251.866 430.936C331.856 430.936 403.106 393.513 449.063 335.22C458.152 323.692 449.294 307.819 434.614 307.819H406.562Z" fill="white"/>
<path d="M451.784 134.146L472.183 171.444L509.481 191.843L472.183 212.242L451.784 249.54L431.386 212.242L394.088 191.843L431.386 171.444L451.784 134.146Z" fill="white"/>
<path d="M365.237 129.869L265.873 185.317V299.875L365.237 242.759V129.869Z" fill="white"/>
<path d="M254.118 299.039V185.317L154.754 129.869V241.923L254.118 299.039Z" fill="white"/>
<path d="M360.861 119.285L260.314 61.4883L159.027 119.709L259.564 175.812L360.861 119.285Z" fill="white"/>
</g>
</svg>
