<svg width="46" height="46" viewBox="0 0 46 46" fill="none" xmlns="http://www.w3.org/2000/svg">
<path d="M22.9987 13.6672C20.432 13.6672 18.2348 14.5811 16.407 16.4089C14.5793 18.2366 13.6654 20.4339 13.6654 23.0005C13.6654 24.8551 14.1628 26.5476 15.1575 28.0779C16.1519 29.6081 17.4944 30.7517 19.1849 31.5084C19.6426 31.7297 19.9716 32.0669 20.1719 32.5199C20.3721 32.9734 20.3737 33.4288 20.1765 33.8861C19.979 34.296 19.6789 34.6071 19.2764 34.8194C18.8743 35.0322 18.4683 35.0397 18.0584 34.8422C15.6683 33.84 13.7552 32.2666 12.319 30.1219C10.8833 27.9767 10.1654 25.603 10.1654 23.0005C10.1654 19.4406 11.4143 16.4118 13.9121 13.9139C16.4099 11.4161 19.4388 10.1672 22.9987 10.1672C25.6101 10.1672 27.9981 10.8851 30.1626 12.3209C32.3268 13.757 33.8979 15.6867 34.8759 18.1099C35.0498 18.5194 35.0327 18.9291 34.8246 19.3389C34.6166 19.7488 34.3078 20.0405 33.8983 20.2139C33.4254 20.4115 32.9601 20.4041 32.5024 20.1918C32.0446 19.9794 31.7051 19.6368 31.4839 19.1639C30.7271 17.4738 29.5836 16.1351 28.0533 15.1477C26.5234 14.1607 24.8385 13.6672 22.9987 13.6672ZM22.9987 4.33386C17.7876 4.33386 13.3737 6.1422 9.75703 9.75886C6.14036 13.3755 4.33203 17.7894 4.33203 23.0005C4.33203 28.0503 6.0132 32.3401 9.37553 35.87C12.7379 39.4 16.9171 41.3084 21.9131 41.5954C22.4093 41.6433 22.8369 41.8527 23.1959 42.2237C23.5552 42.5947 23.7228 43.0285 23.6987 43.5251C23.6746 44.0213 23.4951 44.4347 23.1603 44.7653C22.8251 45.0958 22.4093 45.2492 21.9131 45.2255C18.9393 45.1057 16.1735 44.4221 13.6158 43.1745C11.0584 41.9274 8.82759 40.2927 6.9232 38.2704C5.0192 36.2482 3.528 33.9223 2.44961 31.2926C1.37123 28.6633 0.832031 25.8993 0.832031 23.0005C0.832031 19.9373 1.41459 17.0573 2.5797 14.3608C3.74481 11.6638 5.32506 9.31767 7.32045 7.32228C9.31584 5.32689 11.662 3.74664 14.3589 2.58153C17.0555 1.41642 19.9354 0.833862 22.9987 0.833862C28.82 0.833862 33.9099 2.85083 38.2686 6.88478C42.6269 10.9187 44.9453 15.9212 45.2237 21.8922C45.2715 22.3647 45.1278 22.7722 44.7926 23.1149C44.4578 23.4575 44.0421 23.6406 43.5454 23.6644C43.0488 23.6885 42.6053 23.5232 42.2149 23.1685C41.8244 22.8142 41.6053 22.3888 41.5574 21.8922C41.1985 17.1057 39.2414 12.9828 35.6862 9.5232C32.131 6.06364 27.9018 4.33386 22.9987 4.33386ZM40.2566 43.731L31.4121 34.9005L29.931 39.4009C29.7518 39.9007 29.4123 40.1445 28.9125 40.1324C28.4132 40.1204 28.0813 39.8645 27.9168 39.3648L23.5733 24.8987C23.4477 24.5009 23.5373 24.1493 23.8422 23.844C24.1475 23.5391 24.499 23.4495 24.8969 23.5751L39.3629 27.9186C39.8627 28.0831 40.1186 28.415 40.1306 28.9144C40.1427 29.4141 39.8988 29.7536 39.3991 29.9329L34.8987 31.4139L43.7654 40.2584C44.262 40.7547 44.5103 41.3333 44.5103 41.9944C44.5103 42.6556 44.262 43.2344 43.7654 43.731C43.2688 44.2276 42.6839 44.4759 42.0107 44.4759C41.3375 44.4759 40.7528 44.2276 40.2566 43.731Z" fill="#1563FF"/>
</svg>
