<svg width="24" height="24" viewBox="0 0 24 24" fill="none" xmlns="http://www.w3.org/2000/svg">
<path d="M12.0001 7.2C10.6801 7.2 9.5501 7.67 8.6101 8.61C7.6701 9.55 7.2001 10.68 7.2001 12C7.2001 12.9538 7.4559 13.8242 7.9675 14.6112C8.4789 15.3982 9.1693 15.9863 10.0387 16.3755C10.2741 16.4893 10.4433 16.6627 10.5463 16.8957C10.6493 17.1289 10.6501 17.3631 10.5487 17.5983C10.4471 17.8091 10.2928 17.9691 10.0858 18.0783C9.879 18.1877 9.6702 18.1916 9.4594 18.09C8.2302 17.5746 7.2463 16.7654 6.5077 15.6624C5.7693 14.5592 5.4001 13.3384 5.4001 12C5.4001 10.1692 6.0424 8.6115 7.327 7.3269C8.6116 6.0423 10.1693 5.4 12.0001 5.4C13.3431 5.4 14.5712 5.7692 15.6844 6.5076C16.7974 7.2462 17.6054 8.2386 18.1084 9.4848C18.1978 9.6954 18.189 9.9061 18.082 10.1169C17.975 10.3277 17.8162 10.4777 17.6056 10.5669C17.3624 10.6685 17.1231 10.6647 16.8877 10.5555C16.6523 10.4463 16.4777 10.2701 16.3639 10.0269C15.9747 9.1577 15.3866 8.4692 14.5996 7.9614C13.8128 7.4538 12.9463 7.2 12.0001 7.2ZM12.0001 2.4C9.3201 2.4 7.0501 3.33 5.1901 5.19C3.3301 7.05 2.4001 9.32 2.4001 12C2.4001 14.597 3.2647 16.8032 4.9939 18.6186C6.7231 20.434 8.8724 21.4155 11.4418 21.5631C11.697 21.5877 11.9169 21.6954 12.1015 21.8862C12.2863 22.077 12.3725 22.3001 12.3601 22.5555C12.3477 22.8107 12.2554 23.0233 12.0832 23.1933C11.9108 23.3633 11.697 23.4422 11.4418 23.43C9.9124 23.3684 8.49 23.0168 7.1746 22.3752C5.8594 21.7338 4.7121 20.8931 3.7327 19.8531C2.7535 18.8131 1.9866 17.6169 1.432 16.2645C0.877398 14.9123 0.600098 13.4908 0.600098 12C0.600098 10.4246 0.899698 8.9435 1.4989 7.5567C2.0981 6.1697 2.9108 4.9631 3.937 3.9369C4.9632 2.9107 6.1698 2.098 7.5568 1.4988C8.9436 0.899599 10.4247 0.599998 12.0001 0.599998C14.9939 0.599998 17.6116 1.6373 19.8532 3.7119C22.0946 5.7865 23.2869 8.3592 23.4301 11.43C23.4547 11.673 23.3808 11.8826 23.2084 12.0588C23.0362 12.235 22.8224 12.3292 22.567 12.3414C22.3116 12.3538 22.0835 12.2688 21.8827 12.0864C21.6819 11.9042 21.5692 11.6854 21.5446 11.43C21.36 8.9684 20.3535 6.848 18.5251 5.0688C16.6967 3.2896 14.5217 2.4 12.0001 2.4ZM20.8756 22.6614L16.327 18.12L15.5653 20.4345C15.4731 20.6915 15.2985 20.8169 15.0415 20.8107C14.7847 20.8045 14.614 20.6729 14.5294 20.4159L12.2956 12.9762C12.231 12.7716 12.2771 12.5908 12.4339 12.4338C12.5909 12.277 12.7717 12.2309 12.9763 12.2955L20.416 14.5293C20.673 14.6139 20.8046 14.7846 20.8108 15.0414C20.817 15.2984 20.6916 15.473 20.4346 15.5652L18.1201 16.3269L22.6801 20.8755C22.9355 21.1307 23.0632 21.4283 23.0632 21.7683C23.0632 22.1083 22.9355 22.406 22.6801 22.6614C22.4247 22.9168 22.1239 23.0445 21.7777 23.0445C21.4315 23.0445 21.1308 22.9168 20.8756 22.6614Z" fill="#633A00"/>
</svg>
