<svg width="46" height="40" viewBox="0 0 46 40" fill="none" xmlns="http://www.w3.org/2000/svg">
<path d="M12.2218 31.487C10.7351 32.7283 9.18637 33.2906 7.57559 33.174C5.96442 33.0573 4.5652 32.507 3.37792 31.5231C2.19025 30.5389 1.38331 29.2479 0.957087 27.6504C0.530865 26.0532 0.821754 24.4185 1.82975 22.7463L6.29459 15.3555C5.33714 14.575 4.57648 13.6103 4.01259 12.4615C3.4487 11.3128 3.16675 10.0712 3.16675 8.73696C3.16675 6.36474 4.00209 4.34329 5.67275 2.67263C7.34342 1.00196 9.36487 0.166626 11.7371 0.166626C14.1093 0.166626 16.1308 1.00196 17.8014 2.67263C19.4725 4.34329 20.308 6.36474 20.308 8.73696C20.308 11.1092 19.4725 13.1306 17.8014 14.8013C16.1308 16.4723 14.1093 17.3079 11.7371 17.3079C11.3276 17.3079 10.9253 17.2809 10.5302 17.2268C10.1354 17.1731 9.75998 17.0848 9.40375 16.962L4.845 24.5902C4.35734 25.3948 4.20625 26.186 4.39175 26.9638C4.57725 27.7416 4.96031 28.3741 5.54092 28.8614C6.12192 29.3483 6.81453 29.625 7.61875 29.6915C8.42298 29.758 9.20056 29.4815 9.9515 28.862L33.8005 8.47679C35.2693 7.23546 36.8086 6.67546 38.4182 6.79679C40.0274 6.91774 41.4352 7.46996 42.6415 8.45346C43.8475 9.43696 44.6633 10.7277 45.0892 12.3256C45.5146 13.924 45.216 15.5666 44.1932 17.2536L39.7056 24.6666C40.663 25.4475 41.4237 26.4071 41.9876 27.5454C42.5515 28.6833 42.8334 29.9225 42.8334 31.263C42.8334 33.6352 41.9926 35.6566 40.3111 37.3273C38.6295 38.998 36.6081 39.8333 34.2468 39.8333C31.8854 39.8333 29.8694 38.9941 28.1988 37.3156C26.5277 35.6372 25.6922 33.6194 25.6922 31.2624C25.6922 28.9053 26.5293 26.8878 28.2034 25.2097C29.8776 23.5313 31.8899 22.692 34.2403 22.692C34.6526 22.692 35.0533 22.7228 35.4426 22.7842C35.8319 22.8457 36.2044 22.9376 36.5603 23.0601L41.1552 15.4097C41.6428 14.6051 41.7974 13.8143 41.6189 13.0373C41.4404 12.2603 41.0613 11.6276 40.4814 11.1391C39.9016 10.6507 39.2094 10.3697 38.4048 10.2962C37.5998 10.2231 36.822 10.5037 36.0714 11.138L12.2218 31.487ZM11.7371 13.8079C13.1402 13.8079 14.336 13.3134 15.3246 12.3245C16.3135 11.3359 16.808 10.1401 16.808 8.73696C16.808 7.33424 16.3135 6.1384 15.3246 5.14946C14.336 4.1609 13.1402 3.66663 11.7371 3.66663C10.3344 3.66663 9.13853 4.1609 8.14959 5.14946C7.16103 6.1384 6.66675 7.33424 6.66675 8.73696C6.66675 10.1401 7.16103 11.3359 8.14959 12.3245C9.13853 13.3134 10.3344 13.8079 11.7371 13.8079ZM34.238 36.3333C35.6392 36.3333 36.8387 35.839 37.8366 34.8505C38.8345 33.8615 39.3334 32.6657 39.3334 31.263C39.3334 29.8598 38.8345 28.664 37.8366 27.6755C36.8387 26.6865 35.6392 26.192 34.238 26.192C32.8365 26.192 31.6451 26.6865 30.6639 27.6755C29.6828 28.664 29.1922 29.8598 29.1922 31.263C29.1922 32.6657 29.6828 33.8615 30.6639 34.8505C31.6451 35.839 32.8365 36.3333 34.238 36.3333Z" fill="#1563FF"/>
</svg>
