<svg width="54" height="54" viewBox="0 0 54 54" fill="none" xmlns="http://www.w3.org/2000/svg">
<path d="M35.0527 33.1965C34.1767 31.8095 33.724 30.1972 33.75 28.557C33.7761 26.9167 34.2797 25.3196 35.1993 23.9611C36.1188 22.6026 37.4145 21.5416 38.9277 20.908C40.4408 20.2744 42.1059 20.0957 43.7191 20.3937C45.3323 20.6916 46.8236 21.4534 48.0106 22.5858C49.1975 23.7181 50.0287 25.1719 50.4023 26.7693C50.7759 28.3667 50.6757 30.0383 50.114 31.5796C49.5524 33.1209 48.5536 34.4651 47.2399 35.4476C51.3405 37.7089 54 42.0525 54 47.25V52.3125C54 52.7601 53.8222 53.1893 53.5057 53.5057C53.1893 53.8222 52.7601 54 52.3125 54C51.8649 54 51.4357 53.8222 51.1193 53.5057C50.8028 53.1893 50.625 52.7601 50.625 52.3125V47.25C50.625 41.4315 46.3185 37.125 40.5 37.125C37.4287 37.125 36.1192 37.0575 34.4081 36.7132C30.1894 35.856 26.5343 33.3382 22.3088 28.053C22.1579 27.8816 22.0433 27.6815 21.9721 27.4646C21.9008 27.2477 21.8743 27.0186 21.8942 26.7911C21.914 26.5637 21.9798 26.3426 22.0876 26.1414C22.1954 25.9401 22.3428 25.7628 22.5211 25.6201C22.6994 25.4775 22.9048 25.3726 23.1248 25.3116C23.3448 25.2507 23.5749 25.235 23.8011 25.2655C24.0274 25.2961 24.2451 25.3722 24.4411 25.4894C24.637 25.6065 24.8072 25.7622 24.9412 25.947C27.9788 29.7405 30.5201 31.8195 33.156 32.8421C33.6791 33.0176 34.3204 33.1222 35.0527 33.1965ZM41.0771 33.6285C41.3584 33.6623 41.6408 33.7005 41.9243 33.7433L42.1875 33.75C43.4816 33.7471 44.7255 33.2488 45.6636 32.3574C46.6017 31.4659 47.1628 30.2491 47.2316 28.9568C47.3004 27.6646 46.8718 26.395 46.0337 25.4089C45.1956 24.4229 44.0117 23.7952 42.7253 23.6549C41.4388 23.5145 40.1475 23.8722 39.1165 24.6543C38.0855 25.4365 37.3932 26.5838 37.1818 27.8605C36.9704 29.1372 37.2559 30.4464 37.9797 31.5191C38.7036 32.5919 39.8141 33.3467 41.0771 33.6285ZM33.0075 40.3988C33.4551 40.3988 33.8843 40.5765 34.2007 40.893C34.5172 41.2095 34.695 41.6387 34.695 42.0863C34.6698 42.3519 34.6131 42.6136 34.5262 42.8659C33.9221 44.1484 33.75 45.4781 33.75 47.2601V52.3226C33.75 52.7702 33.5722 53.1994 33.2557 53.5159C32.9393 53.8323 32.5101 54.0101 32.0625 54.0101C31.6149 54.0101 31.1857 53.8323 30.8693 53.5159C30.5528 53.1994 30.375 52.7702 30.375 52.3226V47.2601C30.375 45.0428 30.618 43.2574 31.4111 41.5361C31.5257 41.2039 31.7411 40.9158 32.0272 40.7119C32.3134 40.508 32.6561 40.3985 33.0075 40.3988ZM20.1082 19.4805C20.3716 19.831 20.4882 20.2703 20.4333 20.7053C20.3784 21.1403 20.1564 21.5368 19.8143 21.811C19.4721 22.0851 19.0367 22.2153 18.6002 22.1741C18.1637 22.1328 17.7605 21.9233 17.4757 21.5899L10.4962 12.8655C10.3454 12.6941 10.2308 12.494 10.1596 12.2771C10.0883 12.0602 10.0618 11.8311 10.0817 11.6036C10.1015 11.3762 10.1673 11.1551 10.2751 10.9539C10.3829 10.7526 10.5303 10.5753 10.7086 10.4326C10.8869 10.29 11.0923 10.1851 11.3123 10.1241C11.5323 10.0632 11.7624 10.0475 11.9886 10.078C12.2149 10.1086 12.4326 10.1847 12.6286 10.3019C12.8245 10.419 12.9947 10.5747 13.1288 10.7595L20.1082 19.4805ZM3.375 37.125H21.9375C22.3851 37.125 22.8143 37.3028 23.1307 37.6193C23.4472 37.9357 23.625 38.3649 23.625 38.8125C23.625 39.2601 23.4472 39.6893 23.1307 40.0057C22.8143 40.3222 22.3851 40.5 21.9375 40.5H1.6875C1.23995 40.5 0.810725 40.3222 0.494257 40.0057C0.17779 39.6893 0 39.2601 0 38.8125V1.6875C0 1.23995 0.17779 0.810725 0.494257 0.494257C0.810725 0.17779 1.23995 0 1.6875 0L42.1875 0C42.6351 0 43.0643 0.17779 43.3807 0.494257C43.6972 0.810725 43.875 1.23995 43.875 1.6875V11.8125C43.875 12.2601 43.6972 12.6893 43.3807 13.0057C43.0643 13.3222 42.6351 13.5 42.1875 13.5C41.7399 13.5 41.3107 13.3222 40.9943 13.0057C40.6778 12.6893 40.5 12.2601 40.5 11.8125V3.375H3.375V37.125Z" fill="#633A00"/>
</svg>
