<svg width="46" height="42" viewBox="0 0 46 42" fill="none" xmlns="http://www.w3.org/2000/svg">
<path d="M9.09 35.8334L4.41866 40.5041C3.75483 41.1683 2.99125 41.3188 2.12791 40.9556C1.26497 40.592 0.833496 39.9375 0.833496 38.9921V5.05146C0.833496 3.87273 1.24183 2.87504 2.0585 2.05837C2.87516 1.24171 3.87286 0.833374 5.05158 0.833374H40.9487C42.1275 0.833374 43.1252 1.24171 43.9418 2.05837C44.7585 2.87504 45.1668 3.87273 45.1668 5.05146V31.6153C45.1668 32.794 44.7585 33.7917 43.9418 34.6084C43.1252 35.425 42.1275 35.8334 40.9487 35.8334H9.09ZM7.60016 32.3334H40.9487C41.1284 32.3334 41.2929 32.2585 41.4422 32.1088C41.592 31.9595 41.6668 31.795 41.6668 31.6153V5.05146C41.6668 4.87179 41.592 4.70729 41.4422 4.55796C41.2929 4.40823 41.1284 4.33337 40.9487 4.33337H5.05158C4.87191 4.33337 4.70741 4.40823 4.55808 4.55796C4.40836 4.70729 4.3335 4.87179 4.3335 5.05146V35.5645L7.60016 32.3334Z" fill="#1563FF"/>
</svg>
