<svg width="14" height="11" viewBox="0 0 14 11" fill="none" xmlns="http://www.w3.org/2000/svg">
<path d="M4.95842 8.125L12.0209 1.0625C12.1876 0.895833 12.382 0.8125 12.6043 0.8125C12.8265 0.8125 13.0209 0.895833 13.1876 1.0625C13.3543 1.22917 13.4376 1.42708 13.4376 1.65625C13.4376 1.88542 13.3543 2.08333 13.1876 2.25L5.54176 9.91667C5.37509 10.0833 5.18065 10.1667 4.95842 10.1667C4.7362 10.1667 4.54176 10.0833 4.37509 9.91667L0.791758 6.33333C0.625091 6.16667 0.54523 5.96875 0.552174 5.73958C0.559119 5.51042 0.645925 5.3125 0.812591 5.14583C0.979258 4.97917 1.17717 4.89583 1.40634 4.89583C1.63551 4.89583 1.83342 4.97917 2.00009 5.14583L4.95842 8.125Z" fill="white"/>
</svg>
