<svg width="7" height="12" viewBox="0 0 7 12" fill="none" xmlns="http://www.w3.org/2000/svg">
<path d="M5.03708 6.24025L0.963832 2.16725C0.825499 2.02875 0.754665 1.85466 0.751332 1.645C0.748165 1.4355 0.818999 1.25825 0.963832 1.11325C1.10883 0.968413 1.2845 0.895996 1.49083 0.895996C1.69717 0.895996 1.87283 0.968413 2.01783 1.11325L6.51208 5.6075C6.60558 5.70116 6.67158 5.79991 6.71008 5.90375C6.74858 6.00758 6.76783 6.11975 6.76783 6.24025C6.76783 6.36075 6.74858 6.47291 6.71008 6.57675C6.67158 6.68058 6.60558 6.77933 6.51208 6.873L2.01783 11.3672C1.87933 11.5056 1.70525 11.5764 1.49558 11.5797C1.28608 11.5829 1.10883 11.5121 0.963832 11.3672C0.818999 11.2222 0.746582 11.0466 0.746582 10.8402C0.746582 10.6339 0.818999 10.4582 0.963832 10.3132L5.03708 6.24025Z" fill="#1563FF"/>
</svg>
