<svg width="18" height="18" viewBox="0 0 18 18" fill="none" xmlns="http://www.w3.org/2000/svg">
<path d="M9.00002 10.405L2.23602 17.1693C2.05135 17.3538 1.81924 17.4482 1.53968 17.4527C1.26035 17.4569 1.02402 17.3625 0.830682 17.1693C0.637571 16.976 0.541016 16.7418 0.541016 16.4667C0.541016 16.1916 0.637571 15.9573 0.830682 15.764L7.59502 9.00002L0.830682 2.23602C0.646238 2.05135 0.551793 1.81924 0.547349 1.53968C0.543127 1.26035 0.637571 1.02402 0.830682 0.830682C1.02402 0.637571 1.25824 0.541016 1.53335 0.541016C1.80846 0.541016 2.04268 0.637571 2.23602 0.830682L9.00002 7.59502L15.764 0.830682C15.9487 0.646238 16.1808 0.551793 16.4603 0.547349C16.7397 0.543127 16.976 0.637571 17.1693 0.830682C17.3625 1.02402 17.459 1.25824 17.459 1.53335C17.459 1.80846 17.3625 2.04268 17.1693 2.23602L10.405 9.00002L17.1693 15.764C17.3538 15.9487 17.4482 16.1808 17.4527 16.4603C17.4569 16.7397 17.3625 16.976 17.1693 17.1693C16.976 17.3625 16.7418 17.459 16.4667 17.459C16.1916 17.459 15.9573 17.3625 15.764 17.1693L9.00002 10.405Z" fill="#1563FF"/>
</svg>
