<svg width="9" height="5" viewBox="0 0 9 5" fill="none" xmlns="http://www.w3.org/2000/svg">
<path d="M4.99999 4.99602C4.90961 4.99602 4.82549 4.98158 4.74761 4.9527C4.66974 4.92395 4.59567 4.87445 4.52542 4.8042L1.15474 1.43352C1.05099 1.32964 0.995986 1.20102 0.989736 1.04764C0.983486 0.894392 1.03849 0.759579 1.15474 0.643204C1.26349 0.534579 1.39524 0.480267 1.54999 0.480267C1.70474 0.480267 1.83649 0.534579 1.94524 0.643204L4.99999 3.68652L8.05474 0.643204C8.15861 0.539329 8.28724 0.484267 8.44061 0.478017C8.59399 0.471767 8.72886 0.526829 8.84524 0.643204C8.95386 0.751829 9.00817 0.883517 9.00817 1.03827C9.00817 1.19314 8.95386 1.32489 8.84524 1.43352L5.47455 4.8042C5.4043 4.87445 5.33024 4.92395 5.25236 4.9527C5.17449 4.98158 5.09036 4.99602 4.99999 4.99602Z" fill="#4C5967"/>
</svg>
