<svg width="24" height="21" viewBox="0 0 24 21" fill="none" xmlns="http://www.w3.org/2000/svg">
<path d="M22.4306 20.52C22.3322 20.6738 22.1688 20.7611 21.9404 20.7819C21.7118 20.8027 21.5067 20.7223 21.3251 20.5407L18.923 18.1383H7.19987C6.61607 18.1383 6.11627 17.9304 5.70047 17.5146C5.28467 17.099 5.07677 16.5992 5.07677 16.0152V15.2769H18.1385C18.7349 15.2769 19.2455 15.0645 19.6703 14.6397C20.0951 14.2149 20.3075 13.7042 20.3075 13.1076V4.79998H21.0461C21.6299 4.79998 22.1297 5.00787 22.5455 5.42367C22.9613 5.83947 23.1692 6.33928 23.1692 6.92308V19.7631C23.1692 19.9845 23.0953 20.166 22.9475 20.3076C22.7999 20.4492 22.6276 20.52 22.4306 20.52ZM2.63057 12.7755L4.32917 11.0769H15.7385C15.8461 11.0769 15.9345 11.0423 16.0037 10.9731C16.0729 10.9039 16.1075 10.8154 16.1075 10.7076V2.76928C16.1075 2.66148 16.0729 2.57298 16.0037 2.50378C15.9345 2.43458 15.8461 2.39998 15.7385 2.39998H2.99987C2.89227 2.39998 2.80377 2.43458 2.73437 2.50378C2.66517 2.57298 2.63057 2.66148 2.63057 2.76928V12.7755ZM1.91147 15.6045C1.63247 15.6045 1.38257 15.503 1.16177 15.3C0.940966 15.0968 0.830566 14.8289 0.830566 14.4963V2.76928C0.830566 2.17268 1.04297 1.66198 1.46777 1.23718C1.89257 0.812375 2.40327 0.599976 2.99987 0.599976H15.7385C16.3349 0.599976 16.8455 0.812375 17.2703 1.23718C17.6951 1.66198 17.9075 2.17268 17.9075 2.76928V10.7076C17.9075 11.3042 17.6951 11.8149 17.2703 12.2397C16.8455 12.6645 16.3349 12.8769 15.7385 12.8769H5.07677L2.67467 15.2793C2.56227 15.3915 2.44187 15.4738 2.31347 15.5262C2.18487 15.5784 2.05087 15.6045 1.91147 15.6045Z" fill="#633A00"/>
</svg>
