<svg width="54" height="48" viewBox="0 0 54 48" fill="none" xmlns="http://www.w3.org/2000/svg">
<path d="M16.7013 14.3733V25.04M11.3679 19.7067H22.0346M37.7493 2.36533H16.2533C12.5619 2.36603 9.022 3.83291 6.41207 6.44334C3.80214 9.05377 2.33594 12.594 2.33594 16.2853V38.3253C2.33594 43.8587 9.0906 46.552 12.9013 42.5413L20.8373 34.184H33.1679L40.8346 43.4107C44.4986 47.8213 51.6693 45.2293 51.6693 39.4987V16.2827C51.6686 12.5918 50.202 9.05225 47.5922 6.4424C44.9823 3.83255 41.4402 2.36603 37.7493 2.36533Z" stroke="#F4AF00" stroke-width="3.5" stroke-linecap="round" stroke-linejoin="round"/>
<path d="M34.0988 19.7067C35.5716 19.7067 36.7655 18.5127 36.7655 17.04C36.7655 15.5672 35.5716 14.3733 34.0988 14.3733C32.626 14.3733 31.4321 15.5672 31.4321 17.04C31.4321 18.5127 32.626 19.7067 34.0988 19.7067Z" fill="#F4AF00"/>
<path d="M39.9655 25.5737C41.4383 25.5737 42.6322 24.3798 42.6322 22.907C42.6322 21.4342 41.4383 20.2403 39.9655 20.2403C38.4927 20.2403 37.2988 21.4342 37.2988 22.907C37.2988 24.3798 38.4927 25.5737 39.9655 25.5737Z" fill="#F4AF00"/>
</svg>
