<svg width="52" height="34" viewBox="0 0 52 34" fill="none" xmlns="http://www.w3.org/2000/svg">
<path fill-rule="evenodd" clip-rule="evenodd" d="M23.2282 4.81292C25.0236 4.18462 26.9792 4.18462 28.7746 4.81292L45.9693 10.8321L28.7746 16.8513C26.9792 17.4796 25.0236 17.4796 23.2282 16.8513L14.2563 13.7099C15.5994 13.4247 16.9454 13.1535 18.294 12.8962C20.7436 12.4266 23.1979 11.9823 25.6565 11.5632L26.1474 11.4805L26.3179 11.4521C26.8249 11.3678 27.2776 11.0856 27.5766 10.6675C27.8755 10.2494 27.9961 9.72968 27.9118 9.22267C27.8275 8.71567 27.5453 8.2629 27.1272 7.96399C26.7091 7.66507 26.1894 7.54448 25.6824 7.62876L25.5015 7.65976L25.003 7.74501C22.5185 8.16878 20.0384 8.61744 17.563 9.09092C15.4524 9.49651 13.2436 9.94601 11.3914 10.3774C9.99379 10.7055 8.63238 11.0568 7.68688 11.4108L6.03096 10.8321L23.2282 4.81292ZM4.24588 14.3118L2.31354 13.635C-0.33954 12.7076 -0.33954 8.95659 2.31354 8.02917L21.9469 1.15751C24.571 0.239165 27.4292 0.239165 30.0534 1.15751L49.6867 8.02917C52.3398 8.95659 52.3398 12.7076 49.6867 13.635L40.955 16.6911L41.9935 24.9965C42.083 25.6666 41.9956 26.3484 41.74 26.9743C41.4844 27.6001 41.0695 28.1482 40.5365 28.5641C36.3577 31.7406 31.2492 33.4529 26.0001 33.4363C19.6787 33.4363 14.6748 30.7625 11.629 28.6158C11.0512 28.2029 10.5961 27.6411 10.3122 26.9901C10.0283 26.3392 9.92632 25.6234 10.017 24.919L11.0452 16.6911L8.06404 15.6474C7.69837 15.9986 7.44412 16.4496 7.33296 16.9443C7.55691 17.2177 7.72235 17.5342 7.81906 17.8742C7.91577 18.2142 7.94167 18.5704 7.89518 18.9208C7.84869 19.2712 7.73078 19.6083 7.54876 19.9113C7.36674 20.2143 7.12448 20.4767 6.83696 20.6823L6.84729 20.7288L9.10771 30.9046C9.15796 31.131 9.15676 31.3658 9.10421 31.5917C9.05166 31.8175 8.94909 32.0287 8.80407 32.2097C8.65904 32.3907 8.47526 32.5368 8.26626 32.6373C8.05726 32.7378 7.82837 32.7901 7.59646 32.7904H3.07304C2.84091 32.7905 2.61173 32.7385 2.40241 32.6381C2.19308 32.5378 2.00897 32.3917 1.86366 32.2107C1.71835 32.0297 1.61555 31.8184 1.56286 31.5923C1.51016 31.3662 1.50892 31.1312 1.55921 30.9046L3.81963 20.7263L3.83254 20.6823C3.53597 20.4701 3.28769 20.1976 3.10402 19.8825C2.92035 19.5675 2.80545 19.2171 2.7669 18.8545C2.72834 18.4919 2.767 18.1252 2.88032 17.7786C2.99364 17.432 3.17905 17.1133 3.42438 16.8435C3.43299 16.7608 3.44504 16.6704 3.46054 16.5723C3.58491 15.7779 3.85091 15.0122 4.24588 14.3118ZM14.7859 18.0008L13.861 25.3995C13.8593 25.4271 13.861 25.4443 13.8662 25.4512C16.5632 27.3525 20.7844 29.5613 26.0001 29.5613C31.3295 29.5613 35.5068 27.5359 38.1495 25.5106V25.477L37.2144 18.0008L30.0534 20.5067C27.4292 21.425 24.571 21.425 21.9469 20.5067L14.7859 18.0008Z" fill="#F4AF00"/>
</svg>
