<svg width="52" height="47" viewBox="0 0 52 47" fill="none" xmlns="http://www.w3.org/2000/svg">
<path d="M1.50732 40.1052V26.1423L13.7229 20.9082L25.9385 26.1462V40.1052L13.7229 45.3355L1.50732 40.1052Z" stroke="#633A00" stroke-width="3" stroke-linecap="round" stroke-linejoin="round"/>
<path d="M1.50732 26.1146L13.7229 31.3487L25.9385 26.1146M13.7229 7.04102L25.9346 12.279L38.1502 7.04487" stroke="#633A00" stroke-width="3" stroke-linecap="round" stroke-linejoin="round"/>
<path d="M25.9346 26.1152L38.1501 31.3494L50.3657 26.1152" stroke="#633A00" stroke-width="3" stroke-linecap="round" stroke-linejoin="round"/>
<path d="M13.7229 31.3568V45.339M38.1579 31.3568V45.339M25.9346 12.2794V26.2577M13.7306 20.9001V6.93727L25.9423 1.70312L38.1579 6.93727V20.9001L25.9423 26.1343L13.7306 20.9001ZM25.9346 40.1048V26.142L38.1502 20.9078L50.3658 26.1458V40.1048L38.1502 45.3351L25.9346 40.1048Z" stroke="#633A00" stroke-width="3" stroke-linecap="round" stroke-linejoin="round"/>
</svg>
