<svg width="54" height="54" viewBox="0 0 54 54" fill="none" xmlns="http://www.w3.org/2000/svg">
<path d="M24.7657 47.25H21.6112C13.545 47.25 9.513 47.25 7.0065 44.6962C4.5 42.1425 4.5 38.0318 4.5 29.8125C4.5 21.5932 4.5 17.4825 7.0065 14.9288C9.513 12.375 13.545 12.375 21.6112 12.375H30.168C38.2343 12.375 42.2685 12.375 44.775 14.9288C46.7032 16.893 47.1465 19.7797 47.25 24.75" stroke="#633A00" stroke-width="3.375" stroke-linecap="round" stroke-linejoin="round"/>
<path d="M45.0383 45.0518L49.5 49.5M36 12.375L35.775 11.6775C34.6612 8.2125 34.1055 6.48 32.7803 5.49C31.4528 4.5 29.6933 4.5 26.1675 4.5H25.5757C22.0545 4.5 20.2928 4.5 18.9675 5.49C17.64 6.48 17.0843 8.2125 15.9705 11.6775L15.75 12.375M47.3692 39.4335C47.387 38.3803 47.1949 37.334 46.8041 36.3558C46.4133 35.3776 45.8316 34.487 45.0931 33.7359C44.3545 32.9848 43.4738 32.3883 42.5023 31.9811C41.5308 31.5738 40.488 31.3641 39.4346 31.3641C38.3812 31.3641 37.3384 31.5738 36.3669 31.9811C35.3954 32.3883 34.5147 32.9848 33.7762 33.7359C33.0376 34.487 32.456 35.3776 32.0652 36.3558C31.6744 37.334 31.4823 38.3803 31.5 39.4335C31.535 41.5148 32.3864 43.4989 33.8706 44.9583C35.3549 46.4178 37.3531 47.2356 39.4346 47.2356C41.5162 47.2356 43.5144 46.4178 44.9986 44.9583C46.4828 43.4989 47.3342 41.5148 47.3692 39.4335Z" stroke="#633A00" stroke-width="3.375" stroke-linecap="round" stroke-linejoin="round"/>
</svg>
