<svg width="50" height="56" viewBox="0 0 50 56" fill="none" xmlns="http://www.w3.org/2000/svg">
<path d="M11.6132 53.8324V46.4519C10.8433 38.7613 1.75 34.6434 1.75 22.8324C1.75 11.0266 8.79475 2.02111 22.8868 2.16578C33.0316 2.27428 42.6132 8.07128 42.6132 19.8823L48.25 28.7379C48.25 34.6434 42.6132 34.6434 42.6132 34.6434C42.6132 34.6434 44.0237 49.4046 31.3395 49.4046V53.8324" stroke="#F4AF00" stroke-width="3.5" stroke-linecap="round" stroke-linejoin="round"/>
<path d="M22.5 29C23.9587 29 25.3576 28.4205 26.3891 27.3891C27.4205 26.3576 28 24.9587 28 23.5C28 22.0413 27.4205 20.6424 26.3891 19.6109C25.3576 18.5795 23.9587 18 22.5 18C21.0413 18 19.6424 18.5795 18.6109 19.6109C17.5795 20.6424 17 22.0413 17 23.5C17 24.9587 17.5795 26.3576 18.6109 27.3891C19.6424 28.4205 21.0413 29 22.5 29Z" stroke="#F4AF00" stroke-width="2.5" stroke-linecap="round" stroke-linejoin="round"/>
<path d="M22.5 32C24.7543 32 26.9163 31.1045 28.5104 29.5104C30.1045 27.9163 31 25.7543 31 23.5C31 21.2457 30.1045 19.0837 28.5104 17.4896C26.9163 15.8955 24.7543 15 22.5 15C20.2457 15 18.0837 15.8955 16.4896 17.4896C14.8955 19.0837 14 21.2457 14 23.5C14 25.7543 14.8955 27.9163 16.4896 29.5104C18.0837 31.1045 20.2457 32 22.5 32Z" stroke="#F4AF00" stroke-linecap="round" stroke-linejoin="round" stroke-dasharray="0.3 2"/>
</svg>
