<svg width="28" height="28" viewBox="0 0 28 28" fill="none" xmlns="http://www.w3.org/2000/svg">
<path d="M25.938 0.0517578H2.90654C1.80418 0.0517578 0.910156 0.924458 0.910156 2.00002V25.301C0.910156 26.376 1.80418 27.2487 2.90654 27.2487H25.938C27.042 27.2487 27.936 26.3755 27.936 25.301V2.00002C27.936 0.923911 27.0414 0.0517578 25.938 0.0517578ZM9.10184 22.8191H5.01994V10.5384H9.10184V22.8191ZM7.06116 8.86078H7.03382C5.66462 8.86078 4.7788 7.91754 4.7788 6.73918C4.7788 5.53457 5.69196 4.61758 7.08796 4.61758C8.4845 4.61758 9.34352 5.53457 9.37087 6.73918C9.37087 7.91754 8.48395 8.86078 7.06116 8.86078ZM23.8213 22.8191H19.7394V16.2476C19.7394 14.5973 19.1488 13.4709 17.6719 13.4709C16.5444 13.4709 15.8729 14.2304 15.5771 14.9642C15.4694 15.2261 15.4431 15.5925 15.4431 15.9599V22.8185H11.3612C11.3612 22.8185 11.4148 11.6889 11.3612 10.5378H15.4431V12.2761C15.9856 11.4395 16.9556 10.248 19.1226 10.248C21.8079 10.248 23.8218 12.0038 23.8218 15.7762L23.8213 22.8191Z" fill="black"/>
</svg>
