<svg width="213" height="52" viewBox="0 0 213 52" fill="none" xmlns="http://www.w3.org/2000/svg">
<g clip-path="url(#clip0_2330_199)">
<path d="M37.3711 35.0099C36.8682 35.0099 36.3933 35.2302 36.0455 35.5936C32.7894 38.9972 28.2023 41.1171 23.12 41.1171C13.2422 41.1171 5.23472 33.1096 5.23472 23.2317C5.23472 13.354 13.2422 5.34654 23.12 5.34654C28.9475 5.34654 34.1239 8.13355 37.3894 12.4474C37.7383 12.9084 38.2743 13.1986 38.8526 13.1986H41.1762C42.4625 13.1986 43.294 11.8571 42.5999 10.774C38.4906 4.36153 31.3016 0.111816 23.12 0.111816C10.3512 0.111816 0 10.463 0 23.2317C0 36.0006 10.3512 46.3516 23.12 46.3516C30.489 46.3516 37.0527 42.9042 41.2865 37.5341C42.1239 36.4721 41.3077 35.0099 39.9553 35.0099H37.3711Z" fill="#1563FF"/>
<path d="M33.5643 18.6162L24.4106 23.7243V34.2777L33.5643 29.016V18.6162Z" fill="#8AB1FF"/>
<path d="M23.328 34.2006V23.7243L14.1743 18.6162V28.939L23.328 34.2006Z" fill="#4582FF"/>
<path d="M33.1616 17.6413L23.8988 12.3169L14.5679 17.6804L23.8297 22.8487L33.1616 17.6413Z" fill="#1563FF"/>
<path d="M41.5372 19.0103L43.4165 22.4462L46.8524 24.3253L43.4165 26.2045L41.5372 29.6405L39.6581 26.2045L36.2222 24.3253L39.6581 22.4462L41.5372 19.0103Z" fill="#FFB700"/>
<path d="M59.6756 19.7616C60.4928 19.3403 61.4662 19.1296 62.5921 19.1296C63.5764 19.1296 64.4372 19.2785 65.1781 19.5799C65.9191 19.8778 66.5257 20.3027 66.9942 20.8512C67.4627 21.3997 67.7714 22.0498 67.9131 22.8052H71.567C71.4108 21.436 70.935 20.241 70.1468 19.2168C69.355 18.1925 68.3162 17.3935 67.0269 16.8233C65.7375 16.253 64.2664 15.9697 62.6138 15.9697C60.7905 15.9697 59.1925 16.3184 57.8158 17.0158C56.4393 17.713 55.3679 18.6865 54.5978 19.9323C53.8279 21.1781 53.4429 22.6346 53.4429 24.3017C53.4429 25.9688 53.8279 27.4253 54.5978 28.671C55.3679 29.9169 56.4393 30.8903 57.8158 31.5876C59.1925 32.285 60.7905 32.6337 62.6138 32.6337C64.2664 32.6337 65.7375 32.3467 67.0269 31.7801C68.3162 31.2099 69.355 30.4071 70.1468 29.3757C70.9386 28.3442 71.4108 27.1493 71.567 25.7944H67.9131C67.7714 26.5644 67.4627 27.2218 66.9942 27.7703C66.5257 28.3188 65.9191 28.74 65.1781 29.0306C64.4372 29.3212 63.5764 29.4701 62.5921 29.4701C61.4662 29.4701 60.4928 29.2595 59.6756 28.8381C58.8547 28.4168 58.2264 27.8211 57.7833 27.0439C57.3402 26.2667 57.1221 25.3514 57.1221 24.2981C57.1221 23.2447 57.3437 22.3294 57.7833 21.5522C58.2227 20.7749 58.8547 20.1756 59.6756 19.758V19.7616Z" fill="#1563FF"/>
<path d="M81.3153 19.834C80.4908 19.834 79.7754 20.0011 79.1797 20.3352C78.5804 20.6694 78.0791 21.127 77.6723 21.7009C77.4108 22.075 77.1857 22.4927 77.0005 22.9431V20.15H73.3901L73.4338 24.1453V32.3102H77.004V27.0547C77.004 26.0994 77.1674 25.3112 77.4944 24.6829C77.8213 24.0546 78.2716 23.5932 78.8418 23.2954C79.4121 22.9976 80.0514 22.845 80.7632 22.845C81.0901 22.845 81.4388 22.8668 81.8093 22.9104C82.1797 22.9539 82.5503 23.0157 82.9207 23.1029V20.0265C82.6774 19.9684 82.4195 19.9248 82.1398 19.8886C81.8637 19.8522 81.5877 19.834 81.3153 19.834Z" fill="#1563FF"/>
<path d="M96.3271 23.3826C95.7786 22.2565 94.9978 21.3849 93.9881 20.7639C92.9747 20.1427 91.7652 19.834 90.356 19.834C88.9468 19.834 87.7409 20.1028 86.6585 20.6367C85.5761 21.1706 84.7226 21.9152 84.1052 22.8704C83.4841 23.8257 83.1753 24.9371 83.1753 26.2046C83.1753 27.4722 83.4986 28.6127 84.1488 29.5825C84.7989 30.5523 85.6888 31.3041 86.822 31.838C87.9552 32.3719 89.2409 32.6408 90.6793 32.6408C91.8633 32.6408 92.982 32.481 94.0462 32.1613C95.1067 31.8417 96.0365 31.3949 96.8356 30.8247V28.4312C96.0946 28.9143 95.2628 29.2884 94.3368 29.5534C93.4105 29.8186 92.4916 29.9494 91.58 29.9494C90.5666 29.9494 89.7059 29.7932 88.9939 29.4809C88.2821 29.1685 87.7409 28.7108 87.3705 28.1115C87.2287 27.8827 87.1234 27.6284 87.0326 27.3634H97.1553C97.1553 25.8378 96.8791 24.5158 96.3308 23.3899L96.3271 23.3826ZM86.9128 24.9843C86.9854 24.6719 87.0943 24.385 87.2433 24.1198C87.5338 23.6005 87.9479 23.1937 88.4818 22.9031C89.0157 22.6125 89.6477 22.4636 90.3741 22.4636C91.0424 22.4636 91.6272 22.5981 92.1284 22.8704C92.626 23.1428 93.0218 23.5242 93.3124 24.0255C93.4796 24.3088 93.603 24.632 93.6938 24.9879H86.9128V24.9843Z" fill="#1563FF"/>
<path d="M135.368 20.5311C134.591 20.0699 133.661 19.8374 132.579 19.8374C131.638 19.8374 130.781 20.0736 130.004 20.5421C129.226 21.0106 128.583 21.6897 128.071 22.5724C127.991 22.7104 127.922 22.8629 127.853 23.0083C127.792 22.8375 127.73 22.6667 127.654 22.5071C127.247 21.6535 126.658 20.9925 125.892 20.5311C125.122 20.0699 124.196 19.8374 123.114 19.8374C122.158 19.8374 121.294 20.0736 120.517 20.5421C119.83 20.9561 119.256 21.5408 118.777 22.2782V20.157H115.207V32.3173H118.777V26.4405C118.777 25.6851 118.9 25.0385 119.151 24.4974C119.402 23.9562 119.761 23.5312 120.23 23.2262C120.698 22.921 121.254 22.7685 121.897 22.7685C122.808 22.7685 123.502 23.0481 123.982 23.6112C124.457 24.1742 124.697 25.0023 124.697 26.0992V32.3173H128.267V26.4405C128.267 25.6851 128.391 25.0385 128.642 24.4974C128.892 23.9562 129.252 23.5312 129.72 23.2262C130.189 22.921 130.744 22.7685 131.387 22.7685C132.299 22.7685 132.993 23.0481 133.472 23.6112C133.952 24.1742 134.188 25.0023 134.188 26.0992V32.3173H137.758V25.5652C137.758 24.3848 137.555 23.3641 137.148 22.5106C136.741 21.657 136.149 20.996 135.375 20.5348L135.368 20.5311Z" fill="#1563FF"/>
<path d="M145.542 19.7616C146.358 19.3403 147.332 19.1296 148.457 19.1296C149.442 19.1296 150.302 19.2785 151.045 19.5799C151.786 19.8778 152.392 20.3027 152.86 20.8512C153.329 21.3997 153.638 22.0498 153.78 22.8052H157.433C157.276 21.436 156.801 20.241 156.013 19.2168C155.221 18.1925 154.182 17.3935 152.893 16.8233C151.603 16.253 150.133 15.9697 148.48 15.9697C146.657 15.9697 145.059 16.3184 143.682 17.0158C142.306 17.713 141.234 18.6865 140.468 19.9323C139.697 21.1781 139.312 22.6346 139.312 24.3017C139.312 25.9688 139.697 27.4253 140.468 28.671C141.238 29.9169 142.309 30.8903 143.682 31.5876C145.059 32.285 146.657 32.6337 148.48 32.6337C150.133 32.6337 151.603 32.3467 152.893 31.7801C154.182 31.2135 155.221 30.4071 156.013 29.3757C156.805 28.3442 157.276 27.1493 157.433 25.7944H153.78C153.638 26.5644 153.329 27.2218 152.86 27.7703C152.392 28.3188 151.786 28.74 151.045 29.0306C150.302 29.3212 149.442 29.4701 148.457 29.4701C147.332 29.4701 146.358 29.2595 145.542 28.8381C144.721 28.4168 144.092 27.8211 143.649 27.0439C143.207 26.2667 142.988 25.3514 142.988 24.2981C142.988 23.2447 143.21 22.3294 143.649 21.5522C144.089 20.7749 144.721 20.1756 145.542 19.758V19.7616Z" fill="#1563FF"/>
<path d="M170.062 20.6367C168.921 20.1028 167.595 19.834 166.088 19.834C164.581 19.834 163.251 20.1028 162.114 20.6367C160.978 21.1706 160.084 21.9188 159.445 22.8814C158.806 23.8438 158.483 24.9662 158.483 26.2483C158.483 27.5303 158.803 28.631 159.445 29.5934C160.088 30.556 160.978 31.3041 162.114 31.838C163.255 32.3719 164.581 32.6408 166.088 32.6408C167.595 32.6408 168.921 32.3719 170.062 31.838C171.203 31.3041 172.088 30.556 172.724 29.5934C173.359 28.631 173.675 27.5159 173.675 26.2483C173.675 24.9806 173.359 23.8438 172.724 22.8814C172.088 21.9188 171.203 21.1706 170.062 20.6367ZM169.582 28.2023C169.262 28.7508 168.805 29.1757 168.217 29.4736C167.625 29.7715 166.916 29.924 166.092 29.924C165.267 29.924 164.574 29.775 163.975 29.4736C163.374 29.1757 162.917 28.7508 162.598 28.2023C162.278 27.6539 162.119 27.0037 162.119 26.2483C162.119 25.4928 162.278 24.8208 162.598 24.2725C162.917 23.724 163.379 23.2991 163.975 23.0012C164.574 22.7033 165.278 22.5508 166.092 22.5508C166.905 22.5508 167.629 22.6997 168.217 23.0012C168.809 23.2991 169.262 23.724 169.582 24.2725C169.902 24.8208 170.062 25.4782 170.062 26.2483C170.062 27.0183 169.902 27.6539 169.582 28.2023Z" fill="#1563FF"/>
<path d="M178.954 15.8604H175.383V32.3137H178.954V15.8604Z" fill="#1563FF"/>
<path d="M184.851 15.8604H181.282V32.3137H184.851V15.8604Z" fill="#1563FF"/>
<path d="M212.216 19.8886C211.939 19.8522 211.664 19.834 211.395 19.834C210.567 19.834 209.854 20.0011 209.259 20.3352C208.663 20.6694 208.159 21.127 207.752 21.7009C207.49 22.075 207.268 22.4927 207.08 22.9431V20.15H203.47L203.513 24.1453V32.3102H207.083V27.0547C207.083 26.0994 207.247 25.3112 207.574 24.6829C207.901 24.0546 208.351 23.5932 208.921 23.2954C209.492 22.9976 210.131 22.845 210.843 22.845C211.169 22.845 211.518 22.8668 211.889 22.9104C212.259 22.9539 212.63 23.0157 213 23.1029V20.0265C212.757 19.9684 212.499 19.9248 212.22 19.8886H212.216Z" fill="#1563FF"/>
<path d="M109.406 22.4273C108.85 21.6755 108.189 21.0689 107.416 20.6258C106.497 20.0992 105.469 19.834 104.328 19.834C103.188 19.834 102.098 20.1028 101.187 20.6367C100.275 21.1706 99.5667 21.9188 99.0618 22.8814C98.557 23.8438 98.3027 24.9662 98.3027 26.2483C98.3027 27.5303 98.557 28.631 99.0618 29.5934C99.5667 30.556 100.275 31.3041 101.187 31.838C102.098 32.3719 103.144 32.6408 104.328 32.6408C105.512 32.6408 106.497 32.3756 107.416 31.849C108.193 31.4022 108.854 30.792 109.406 30.0329L109.308 32.3175H113.005V20.1573H109.308L109.406 22.431V22.4273ZM108.552 28.0934C108.269 28.6127 107.819 29.0122 107.296 29.2956C106.773 29.5789 106.148 29.7205 105.418 29.7205C104.688 29.7205 104.078 29.5789 103.551 29.2956C103.024 29.0122 102.618 28.6127 102.334 28.0934C102.051 27.574 101.909 26.9602 101.909 26.2446C101.909 25.5291 102.051 24.8972 102.334 24.3777C102.618 23.8584 103.021 23.4588 103.551 23.1755C104.078 22.8922 104.702 22.7506 105.418 22.7506C106.133 22.7506 106.773 22.8922 107.296 23.1755C107.819 23.4588 108.269 23.8584 108.552 24.3777C108.836 24.8972 109.017 25.5074 109.017 26.2373C109.017 26.9674 108.836 27.5776 108.552 28.0934Z" fill="#1563FF"/>
<path d="M197.706 22.4273C197.15 21.6755 196.489 21.0689 195.715 20.6258C194.797 20.0992 193.768 19.834 192.628 19.834C191.487 19.834 190.398 20.1028 189.486 20.6367C188.574 21.1706 187.867 21.9188 187.362 22.8814C186.857 23.8438 186.603 24.9662 186.603 26.2483C186.603 27.5303 186.857 28.631 187.362 29.5934C187.867 30.556 188.574 31.3041 189.486 31.838C190.398 32.3719 191.443 32.6408 192.628 32.6408C193.812 32.6408 194.797 32.3756 195.715 31.849C196.492 31.4022 197.153 30.792 197.706 30.0329L197.608 32.3175H201.305V20.1573H197.608L197.706 22.431V22.4273ZM196.855 28.0934C196.572 28.6127 196.122 29.0122 195.6 29.2956C195.076 29.5789 194.452 29.7205 193.721 29.7205C192.991 29.7205 192.381 29.5789 191.855 29.2956C191.328 29.0122 190.921 28.6127 190.638 28.0934C190.355 27.574 190.213 26.9602 190.213 26.2446C190.213 25.5291 190.355 24.8972 190.638 24.3777C190.921 23.8584 191.324 23.4588 191.855 23.1755C192.381 22.8922 193.005 22.7506 193.721 22.7506C194.436 22.7506 195.076 22.8922 195.6 23.1755C196.122 23.4588 196.572 23.8584 196.855 24.3777C197.139 24.8972 197.321 25.5074 197.321 26.2373C197.321 26.9674 197.139 27.5776 196.855 28.0934Z" fill="#1563FF"/>
<path d="M88.2636 48.7472C87.7847 48.7472 87.3417 48.6694 86.9345 48.5137C86.5335 48.3521 86.1833 48.1276 85.8838 47.8402C85.5906 47.5468 85.36 47.2056 85.1924 46.8165C85.0248 46.4274 84.9409 45.9993 84.9409 45.5323C84.9409 45.0653 85.0248 44.6372 85.1924 44.2481C85.36 43.859 85.5935 43.5207 85.8928 43.2334C86.1923 42.94 86.5425 42.7155 86.9435 42.5598C87.3507 42.3982 87.7937 42.3174 88.2726 42.3174C88.7575 42.3174 89.2036 42.4012 89.6106 42.5688C90.0237 42.7305 90.374 42.9729 90.6613 43.2962L90.0776 43.862C89.8382 43.6105 89.5688 43.4249 89.2694 43.3052C88.9701 43.1795 88.6498 43.1166 88.3085 43.1166C87.9553 43.1166 87.626 43.1765 87.3207 43.2962C87.0214 43.4159 86.761 43.5836 86.5394 43.7991C86.318 44.0146 86.1443 44.2721 86.0185 44.5714C85.8989 44.8648 85.8389 45.185 85.8389 45.5323C85.8389 45.8796 85.8989 46.2029 86.0185 46.5022C86.1443 46.7956 86.318 47.05 86.5394 47.2655C86.761 47.481 87.0214 47.6487 87.3207 47.7684C87.626 47.8881 87.9553 47.948 88.3085 47.948C88.6498 47.948 88.9701 47.8881 89.2694 47.7684C89.5688 47.6427 89.8382 47.4511 90.0776 47.1937L90.6613 47.7594C90.374 48.0827 90.0237 48.3281 89.6106 48.4958C89.2036 48.6635 88.7546 48.7472 88.2636 48.7472ZM91.9424 48.6754V42.3892H94.394C94.9449 42.3892 95.4148 42.4761 95.8039 42.6497C96.1932 42.8232 96.4924 43.0747 96.7019 43.404C96.9116 43.7333 97.0162 44.1254 97.0162 44.5804C97.0162 45.0355 96.9116 45.4275 96.7019 45.7568C96.4924 46.0801 96.1932 46.3286 95.8039 46.5022C95.4148 46.6757 94.9449 46.7626 94.394 46.7626H92.4363L92.8404 46.3495V48.6754H91.9424ZM96.1452 48.6754L94.5467 46.3944H95.5076L97.124 48.6754H96.1452ZM92.8404 46.4393L92.4363 45.9993H94.3671C94.9418 45.9993 95.3759 45.8765 95.6692 45.6311C95.9686 45.3796 96.1182 45.0294 96.1182 44.5804C96.1182 44.1314 95.9686 43.7841 95.6692 43.5387C95.3759 43.2933 94.9418 43.1705 94.3671 43.1705H92.4363L92.8404 42.7215V46.4393ZM97.5152 48.6754L100.362 42.3892H101.251L104.107 48.6754H103.164L100.622 42.8921H100.982L98.4402 48.6754H97.5152ZM98.7275 47.1038L98.97 46.3854H102.508L102.769 47.1038H98.7275ZM105.853 45.3617H109.095V46.134H105.853V45.3617ZM105.942 48.6754H105.044V42.3892H109.481V43.1705H105.942V48.6754ZM112.037 48.6754V43.1705H109.882V42.3892H115.081V43.1705H112.926V48.6754H112.037ZM116.059 48.6754V42.3892H116.957V48.6754H116.059ZM118.839 48.6754V42.3892H119.576L123.734 47.5529H123.347V42.3892H124.245V48.6754H123.509L119.351 43.5118H119.737V48.6754H118.839ZM128.965 48.7472C128.48 48.7472 128.034 48.6694 127.627 48.5137C127.22 48.3521 126.866 48.1276 126.567 47.8402C126.268 47.5468 126.034 47.2056 125.867 46.8165C125.699 46.4274 125.615 45.9993 125.615 45.5323C125.615 45.0653 125.699 44.6372 125.867 44.2481C126.034 43.859 126.268 43.5207 126.567 43.2334C126.872 42.94 127.229 42.7155 127.636 42.5598C128.043 42.3982 128.492 42.3174 128.983 42.3174C129.48 42.3174 129.935 42.3982 130.348 42.5598C130.761 42.7215 131.111 42.964 131.398 43.2873L130.842 43.844C130.584 43.5926 130.303 43.41 129.997 43.2962C129.698 43.1765 129.372 43.1166 129.019 43.1166C128.659 43.1166 128.324 43.1765 128.013 43.2962C127.707 43.4159 127.441 43.5836 127.214 43.7991C126.992 44.0146 126.818 44.2721 126.693 44.5714C126.573 44.8648 126.513 45.185 126.513 45.5323C126.513 45.8736 126.573 46.1939 126.693 46.4932C126.818 46.7866 126.992 47.0439 127.214 47.2655C127.441 47.481 127.707 47.6487 128.013 47.7684C128.318 47.8881 128.65 47.948 129.01 47.948C129.345 47.948 129.665 47.8971 129.97 47.7953C130.282 47.6876 130.569 47.5109 130.833 47.2655L131.344 47.948C131.033 48.2114 130.668 48.412 130.249 48.5497C129.836 48.6814 129.408 48.7472 128.965 48.7472ZM130.482 47.8313V45.4964H131.344V47.948L130.482 47.8313ZM136.284 45.3617H139.526V46.134H136.284V45.3617ZM136.374 48.6754H135.476V42.3892H139.912V43.1705H136.374V48.6754ZM143.781 48.7472C142.954 48.7472 142.305 48.5108 141.832 48.0378C141.359 47.5648 141.122 46.8733 141.122 45.9634V42.3892H142.02V45.9274C142.02 46.6279 142.173 47.1398 142.479 47.4631C142.789 47.7863 143.226 47.948 143.789 47.948C144.357 47.948 144.795 47.7863 145.1 47.4631C145.411 47.1398 145.567 46.6279 145.567 45.9274V42.3892H146.438V45.9634C146.438 46.8733 146.201 47.5648 145.728 48.0378C145.262 48.5108 144.613 48.7472 143.781 48.7472ZM149.413 48.6754V43.1705H147.258V42.3892H152.458V43.1705H150.303V48.6754H149.413ZM155.926 48.7472C155.1 48.7472 154.45 48.5108 153.977 48.0378C153.505 47.5648 153.267 46.8733 153.267 45.9634V42.3892H154.165V45.9274C154.165 46.6279 154.318 47.1398 154.624 47.4631C154.936 47.7863 155.372 47.948 155.935 47.948C156.505 47.948 156.941 47.7863 157.247 47.4631C157.558 47.1398 157.713 46.6279 157.713 45.9274V42.3892H158.584V45.9634C158.584 46.8733 158.348 47.5648 157.875 48.0378C157.408 48.5108 156.759 48.7472 155.926 48.7472ZM160.425 48.6754V42.3892H162.878C163.428 42.3892 163.898 42.4761 164.286 42.6497C164.677 42.8232 164.975 43.0747 165.185 43.404C165.395 43.7333 165.499 44.1254 165.499 44.5804C165.499 45.0355 165.395 45.4275 165.185 45.7568C164.975 46.0801 164.677 46.3286 164.286 46.5022C163.898 46.6757 163.428 46.7626 162.878 46.7626H160.919L161.323 46.3495V48.6754H160.425ZM164.629 48.6754L163.029 46.3944H163.99L165.607 48.6754H164.629ZM161.323 46.4393L160.919 45.9993H162.85C163.425 45.9993 163.859 45.8765 164.152 45.6311C164.452 45.3796 164.601 45.0294 164.601 44.5804C164.601 44.1314 164.452 43.7841 164.152 43.5387C163.859 43.2933 163.425 43.1705 162.85 43.1705H160.919L161.323 42.7215V46.4393ZM167.768 45.1013H171.001V45.8646H167.768V45.1013ZM167.848 47.8941H171.513V48.6754H166.95V42.3892H171.387V43.1705H167.848V47.8941ZM174.798 48.7472C174.319 48.7472 173.862 48.6754 173.424 48.5317C172.988 48.382 172.642 48.1905 172.391 47.957L172.724 47.2565C172.964 47.466 173.268 47.6397 173.64 47.7774C174.01 47.915 174.398 47.9839 174.798 47.9839C175.164 47.9839 175.46 47.942 175.687 47.8582C175.914 47.7744 176.083 47.6606 176.19 47.5169C176.298 47.3672 176.352 47.1997 176.352 47.014C176.352 46.7985 176.279 46.625 176.136 46.4932C175.999 46.3614 175.816 46.2568 175.589 46.1789C175.367 46.0951 175.122 46.0233 174.852 45.9634C174.583 45.9034 174.311 45.8347 174.034 45.7568C173.765 45.673 173.516 45.5682 173.289 45.4425C173.067 45.3168 172.888 45.1491 172.75 44.9396C172.613 44.7241 172.544 44.4486 172.544 44.1134C172.544 43.7901 172.628 43.4938 172.795 43.2244C172.969 42.9489 173.233 42.7305 173.585 42.5688C173.944 42.4012 174.4 42.3174 174.951 42.3174C175.317 42.3174 175.679 42.3652 176.038 42.4611C176.397 42.5569 176.709 42.6946 176.971 42.8742L176.675 43.5926C176.406 43.413 176.121 43.2843 175.822 43.2064C175.523 43.1227 175.233 43.0807 174.951 43.0807C174.598 43.0807 174.308 43.1256 174.079 43.2154C173.852 43.3052 173.685 43.4249 173.577 43.5746C173.476 43.7243 173.424 43.8919 173.424 44.0775C173.424 44.2991 173.493 44.4756 173.63 44.6073C173.775 44.7391 173.957 44.8438 174.179 44.9217C174.406 44.9995 174.654 45.0714 174.924 45.1372C175.193 45.1971 175.463 45.2659 175.732 45.3437C176.007 45.4216 176.255 45.5233 176.477 45.6491C176.704 45.7748 176.888 45.9425 177.026 46.1519C177.163 46.3614 177.232 46.6308 177.232 46.9602C177.232 47.2774 177.145 47.5738 176.971 47.8492C176.798 48.1186 176.529 48.3371 176.163 48.5048C175.804 48.6664 175.349 48.7472 174.798 48.7472Z" fill="#1563FF"/>
</g>
<defs>
<clipPath id="clip0_2330_199">
<rect width="213" height="51.7767" fill="white" transform="translate(0 0.111816)"/>
</clipPath>
</defs>
</svg>
