<svg width="24" height="16" viewBox="0 0 24 16" fill="none" xmlns="http://www.w3.org/2000/svg">
<path d="M1.6665 15.5121C1.38317 15.5121 1.14573 15.4163 0.954171 15.2245C0.762393 15.0329 0.666504 14.7954 0.666504 14.5118C0.666504 14.2285 0.762393 13.991 0.954171 13.7995C1.14573 13.6082 1.38317 13.5125 1.6665 13.5125H22.3332C22.6165 13.5125 22.8539 13.6083 23.0455 13.7998C23.2373 13.9916 23.3332 14.2293 23.3332 14.5128C23.3332 14.7962 23.2373 15.0336 23.0455 15.2252C22.8539 15.4165 22.6165 15.5121 22.3332 15.5121H1.6665ZM1.6665 8.99948C1.38317 8.99948 1.14573 8.90359 0.954171 8.71182C0.762393 8.52004 0.666504 8.28248 0.666504 7.99915C0.666504 7.71559 0.762393 7.47815 0.954171 7.28682C1.14573 7.09526 1.38317 6.99948 1.6665 6.99948H22.3332C22.6165 6.99948 22.8539 7.09537 23.0455 7.28715C23.2373 7.47893 23.3332 7.71648 23.3332 7.99982C23.3332 8.28337 23.2373 8.52082 23.0455 8.71215C22.8539 8.90371 22.6165 8.99948 22.3332 8.99948H1.6665ZM1.6665 2.48648C1.38317 2.48648 1.14573 2.39071 0.954171 2.19915C0.762393 2.00737 0.666504 1.7697 0.666504 1.48615C0.666504 1.20282 0.762393 0.965371 0.954171 0.773816C1.14573 0.582483 1.38317 0.486816 1.6665 0.486816H22.3332C22.6165 0.486816 22.8539 0.582705 23.0455 0.774483C23.2373 0.966039 23.3332 1.20359 23.3332 1.48715C23.3332 1.77048 23.2373 2.00793 23.0455 2.19948C22.8539 2.39082 22.6165 2.48648 22.3332 2.48648H1.6665Z" fill="#1563FF"/>
</svg>
