<svg width="36" height="46" viewBox="0 0 36 46" fill="none" xmlns="http://www.w3.org/2000/svg">
<path d="M4.5 38.8621L8.94375 37.0621C8.56875 35.9746 8.22225 34.8684 7.90425 33.7434C7.58625 32.6184 7.33275 31.4934 7.14375 30.3684L4.5 32.1684V38.8621ZM13.5 36.4996H22.5C23.175 34.9996 23.7188 33.1719 24.1313 31.0164C24.5438 28.8609 24.75 26.6574 24.75 24.4059C24.75 20.6934 24.1313 17.1781 22.8938 13.8601C21.6562 10.5421 20.025 7.98236 18 6.18086C15.975 7.98086 14.3438 10.5406 13.1062 13.8601C11.8687 17.1796 11.25 20.6949 11.25 24.4059C11.25 26.6559 11.4562 28.8594 11.8687 31.0164C12.2812 33.1734 12.825 35.0011 13.5 36.4996ZM18 25.2496C16.7625 25.2496 15.7035 24.8094 14.823 23.9289C13.9425 23.0484 13.5015 21.9886 13.5 20.7496C13.4985 19.5106 13.9395 18.4516 14.823 17.5726C15.7065 16.6936 16.7655 16.2526 18 16.2496C19.2345 16.2466 20.2943 16.6876 21.1793 17.5726C22.0643 18.4576 22.5045 19.5166 22.5 20.7496C22.4955 21.9826 22.0553 23.0424 21.1793 23.9289C20.3032 24.8154 19.2435 25.2556 18 25.2496ZM31.5 38.8621V32.1684L28.8563 30.3684C28.6688 31.4934 28.416 32.6184 28.098 33.7434C27.78 34.8684 27.4327 35.9746 27.0562 37.0621L31.5 38.8621ZM18 0.443359C21.7125 3.14336 24.516 6.57461 26.4105 10.7371C28.305 14.8996 29.2515 19.7371 29.25 25.2496L33.975 28.3996C34.6125 28.8121 35.1098 29.3559 35.4668 30.0309C35.8237 30.7059 36.0015 31.4184 36 32.1684V45.4996L24.8062 40.9996H11.1938L0 45.4996V32.1684C0 31.4184 0.1785 30.7059 0.5355 30.0309C0.8925 29.3559 1.389 28.8121 2.025 28.3996L6.75 25.2496C6.75 19.7371 7.69725 14.8996 9.59175 10.7371C11.4862 6.57461 14.289 3.14336 18 0.443359Z" fill="#633A00"/>
</svg>
