<svg width="24" height="24" viewBox="0 0 24 24" fill="none" xmlns="http://www.w3.org/2000/svg">
<path d="M9.59961 16.8231C11.5996 16.8231 13.2996 16.122 14.6996 14.7198C16.0996 13.3174 16.7996 11.6146 16.7996 9.61138C16.7996 7.60818 16.0996 5.90548 14.6996 4.50328C13.2996 3.10108 11.5996 2.39998 9.59961 2.39998C7.59961 2.39998 5.89961 3.10108 4.49961 4.50328C3.09961 5.90548 2.39961 7.60818 2.39961 9.61138C2.39961 11.6146 3.09961 13.3174 4.49961 14.7198C5.89961 16.122 7.59961 16.8231 9.59961 16.8231ZM9.59931 12.9576C9.34411 12.9576 9.13041 12.8714 8.95821 12.699C8.78581 12.5264 8.69961 12.3126 8.69961 12.0576V6.08068C8.69961 5.82568 8.78591 5.61198 8.95851 5.43958C9.13111 5.26698 9.34491 5.18068 9.59991 5.18068C9.85511 5.18068 10.0688 5.26698 10.241 5.43958C10.4134 5.61198 10.4996 5.82568 10.4996 6.08068V12.0576C10.4996 12.3126 10.4133 12.5264 10.2407 12.699C10.0681 12.8714 9.85431 12.9576 9.59931 12.9576ZM5.49141 12.9576C5.23641 12.9576 5.02271 12.8714 4.85031 12.699C4.67811 12.5264 4.59201 12.3126 4.59201 12.0576V8.42308C4.59201 8.16808 4.67831 7.95428 4.85091 7.78168C5.02351 7.60928 5.23731 7.52308 5.49231 7.52308C5.74751 7.52308 5.96121 7.60928 6.13341 7.78168C6.30581 7.95428 6.39201 8.16808 6.39201 8.42308V12.0576C6.39201 12.3126 6.30571 12.5264 6.13311 12.699C5.96051 12.8714 5.74661 12.9576 5.49141 12.9576ZM13.7069 12.9576C13.4517 12.9576 13.238 12.8714 13.0658 12.699C12.8934 12.5264 12.8072 12.3126 12.8072 12.0576V9.59998C12.8072 9.34498 12.8935 9.13128 13.0661 8.95888C13.2387 8.78628 13.4526 8.69998 13.7078 8.69998C13.9628 8.69998 14.1765 8.78628 14.3489 8.95888C14.5211 9.13128 14.6072 9.34498 14.6072 9.59998V12.0576C14.6072 12.3126 14.5209 12.5264 14.3483 12.699C14.1757 12.8714 13.9619 12.9576 13.7069 12.9576ZM9.59961 18.6C7.08721 18.6 4.95911 17.7283 3.21531 15.9849C1.47151 14.2415 0.599609 12.1138 0.599609 9.60178C0.599609 7.08978 1.47131 4.96148 3.21471 3.21688C4.95811 1.47228 7.08581 0.599976 9.59781 0.599976C12.1098 0.599976 14.2381 1.47188 15.9827 3.21568C17.7273 4.95948 18.5996 7.08758 18.5996 9.59998C18.5996 10.6868 18.4207 11.7154 18.0629 12.6858C17.7053 13.6562 17.2065 14.5284 16.5665 15.3024L22.7789 21.5145C22.9449 21.6781 23.0279 21.8863 23.0279 22.1391C23.0279 22.3919 22.9449 22.6033 22.7789 22.7733C22.6127 22.9433 22.4019 23.0264 22.1465 23.0226C21.8911 23.0188 21.6803 22.9338 21.5141 22.7676L15.3134 16.5669C14.5318 17.2069 13.6558 17.7057 12.6854 18.0633C11.715 18.4211 10.6864 18.6 9.59961 18.6Z" fill="#633A00"/>
</svg>
