<svg width="30" height="28" viewBox="0 0 30 28" fill="none" xmlns="http://www.w3.org/2000/svg">
<g filter="url(#filter0_dd_2377_270)">
<path d="M10.2354 9.22885C10.8418 7.59026 13.1591 7.59027 13.7654 9.22885L15.345 13.4966L15.3707 13.5486C15.402 13.5972 15.4485 13.6348 15.5036 13.6552L19.7714 15.2348L19.9205 15.2963C21.4087 15.9841 21.3588 18.1774 19.7714 18.7648L15.5036 20.3444C15.4301 20.3717 15.3722 20.4295 15.345 20.503L13.7654 24.7708C13.178 26.3582 10.9846 26.4081 10.2969 24.92L10.2354 24.7708L8.65581 20.503C8.63538 20.4479 8.59782 20.4014 8.54921 20.3702L8.49722 20.3444L4.22943 18.7648C2.59084 18.1585 2.59085 15.8412 4.22943 15.2348L8.49722 13.6552C8.57072 13.628 8.62857 13.5701 8.65581 13.4966L10.2354 9.22885ZM12.2525 9.78864C12.1659 9.55456 11.835 9.55456 11.7483 9.78864L10.1687 14.0564C9.9781 14.5715 9.57211 14.9775 9.05702 15.1682L4.78922 16.7478C4.55514 16.8344 4.55514 17.1653 4.78922 17.2519L9.05702 18.8315L9.15207 18.8693C9.62197 19.0729 9.98997 19.4602 10.1687 19.9432L11.7483 24.211C11.835 24.4451 12.1659 24.4451 12.2525 24.211L13.8321 19.9432C14.0227 19.4281 14.4287 19.0221 14.9438 18.8315L19.2116 17.2519C19.431 17.1707 19.445 16.8748 19.2531 16.7667L19.2116 16.7478L14.9438 15.1682C14.4608 14.9894 14.0734 14.6214 13.8699 14.1515L13.8321 14.0564L12.2525 9.78864Z" fill="#633A00"/>
<path d="M20.4218 0.750926C20.7924 -0.250434 22.2085 -0.250428 22.579 0.750926L23.5444 3.35902L23.5601 3.39079C23.5792 3.4205 23.6076 3.44345 23.6413 3.45594L26.2494 4.42126L26.3405 4.45881C27.2499 4.87911 27.2194 6.21951 26.2494 6.57847L23.6413 7.54379C23.5964 7.56043 23.561 7.59579 23.5444 7.6407L22.579 10.2488C22.2201 11.2189 20.8797 11.2494 20.4594 10.3399L20.4218 10.2488L19.4565 7.6407C19.444 7.607 19.4211 7.5786 19.3914 7.55951L19.3596 7.54379L16.7515 6.57847C15.7501 6.20793 15.7502 4.79179 16.7515 4.42126L19.3596 3.45594C19.4045 3.4393 19.4399 3.40394 19.4565 3.35902L20.4218 0.750926ZM21.6545 1.09302C21.6015 0.949971 21.3993 0.949976 21.3464 1.09302L20.3811 3.70112C20.2646 4.0159 20.0165 4.26401 19.7017 4.3805L17.0936 5.34582C16.9506 5.39876 16.9506 5.60097 17.0936 5.6539L19.7017 6.61922L19.7598 6.64233C20.0469 6.76671 20.2718 7.00343 20.3811 7.2986L21.3464 9.9067C21.3993 10.0498 21.6015 10.0497 21.6545 9.9067L22.6198 7.2986C22.7363 6.98383 22.9844 6.73572 23.2992 6.61922L25.9073 5.6539C26.0414 5.60429 26.0499 5.42345 25.9326 5.35737L25.9073 5.34582L23.2992 4.3805C23.004 4.27126 22.7673 4.04637 22.6429 3.75921L22.6198 3.70112L21.6545 1.09302Z" fill="#633A00"/>
</g>
<defs>
<filter id="filter0_dd_2377_270" x="-0.999512" y="-9.15527e-05" width="32" height="34" filterUnits="userSpaceOnUse" color-interpolation-filters="sRGB">
<feFlood flood-opacity="0" result="BackgroundImageFix"/>
<feColorMatrix in="SourceAlpha" type="matrix" values="0 0 0 0 0 0 0 0 0 0 0 0 0 0 0 0 0 0 127 0" result="hardAlpha"/>
<feOffset dy="4"/>
<feGaussianBlur stdDeviation="2"/>
<feComposite in2="hardAlpha" operator="out"/>
<feColorMatrix type="matrix" values="0 0 0 0 0 0 0 0 0 0 0 0 0 0 0 0 0 0 0.25 0"/>
<feBlend mode="normal" in2="BackgroundImageFix" result="effect1_dropShadow_2377_270"/>
<feColorMatrix in="SourceAlpha" type="matrix" values="0 0 0 0 0 0 0 0 0 0 0 0 0 0 0 0 0 0 127 0" result="hardAlpha"/>
<feOffset dy="4"/>
<feGaussianBlur stdDeviation="2"/>
<feComposite in2="hardAlpha" operator="out"/>
<feColorMatrix type="matrix" values="0 0 0 0 0 0 0 0 0 0 0 0 0 0 0 0 0 0 0.25 0"/>
<feBlend mode="normal" in2="effect1_dropShadow_2377_270" result="effect2_dropShadow_2377_270"/>
<feBlend mode="normal" in="SourceGraphic" in2="effect2_dropShadow_2377_270" result="shape"/>
</filter>
</defs>
</svg>
