<svg width="21" height="23" viewBox="0 0 21 23" fill="none" xmlns="http://www.w3.org/2000/svg">
<path d="M18.0267 20.3099L16.7274 21.5975C16.5612 21.7637 16.3555 21.8449 16.1103 21.8411C15.8649 21.8371 15.6529 21.7459 15.4743 21.5675C15.3083 21.4013 15.2253 21.1944 15.2253 20.9468C15.2253 20.6992 15.3083 20.4923 15.4743 20.3261L16.7436 19.0268L15.4743 17.7575C15.3083 17.5913 15.2253 17.3856 15.2253 17.1404C15.2253 16.895 15.3083 16.683 15.4743 16.5044C15.6529 16.3184 15.8668 16.2273 16.116 16.2311C16.3652 16.2349 16.579 16.326 16.7574 16.5044L18.0267 17.7737L19.2843 16.4861C19.4505 16.3077 19.6582 16.2185 19.9074 16.2185C20.1566 16.2185 20.3705 16.3077 20.5491 16.4861C20.7351 16.6723 20.8281 16.8861 20.8281 17.1275C20.8281 17.3691 20.7351 17.583 20.5491 17.7692L19.2798 19.0268L20.5674 20.3144C20.7458 20.493 20.8339 20.7038 20.8317 20.9468C20.8293 21.1898 20.7351 21.4006 20.5491 21.5792C20.3705 21.7452 20.1597 21.8294 19.9167 21.8318C19.6737 21.834 19.4629 21.7459 19.2843 21.5675L18.0267 20.3099ZM4.0998 20.3999C4.5168 20.3999 4.87101 20.2541 5.16241 19.9625C5.45401 19.6711 5.5998 19.3169 5.5998 18.8999C5.5998 18.4829 5.45401 18.1287 5.16241 17.8373C4.87101 17.5457 4.5168 17.3999 4.0998 17.3999C3.6828 17.3999 3.3286 17.5457 3.0372 17.8373C2.7456 18.1287 2.5998 18.4829 2.5998 18.8999C2.5998 19.3169 2.7456 19.6711 3.0372 19.9625C3.3286 20.2541 3.6828 20.3999 4.0998 20.3999ZM4.0998 22.1999C3.1844 22.1999 2.4056 21.8787 1.7634 21.2363C1.121 20.5941 0.799805 19.8153 0.799805 18.8999C0.799805 17.9845 1.121 17.2057 1.7634 16.5635C2.4056 15.9211 3.1844 15.5999 4.0998 15.5999C4.8244 15.5999 5.47631 15.8126 6.05551 16.238C6.63471 16.6634 7.02971 17.2261 7.2405 17.9261C8.09751 17.7753 8.8075 17.3684 9.37051 16.7054C9.93371 16.0422 10.2153 15.2737 10.2153 14.3999V9.773C10.2153 8.1976 10.7714 6.8538 11.8836 5.7416C12.996 4.6292 14.3399 4.073 15.9153 4.073H17.7336L16.176 2.5154C15.9976 2.3368 15.9095 2.1248 15.9117 1.8794C15.9141 1.6342 16.0083 1.4185 16.1943 1.2323C16.3805 1.0461 16.5944 0.953003 16.836 0.953003C17.0774 0.953003 17.2912 1.0461 17.4774 1.2323L20.4405 4.2137C20.6575 4.4307 20.766 4.6838 20.766 4.973C20.766 5.2622 20.6575 5.5153 20.4405 5.7323L17.4474 8.7254C17.2812 8.8914 17.0774 8.9775 16.836 8.9837C16.5944 8.9899 16.3805 8.9038 16.1943 8.7254C16.0083 8.5592 15.9172 8.3503 15.921 8.0987C15.9248 7.8473 16.0098 7.6285 16.176 7.4423L17.7222 5.873H15.9153C14.8307 5.873 13.9095 6.2518 13.1517 7.0094C12.3941 7.7672 12.0153 8.6884 12.0153 9.773V14.3999C12.0153 15.7599 11.5626 16.9449 10.6572 17.9549C9.7518 18.9649 8.62521 19.5614 7.27741 19.7444C7.09141 20.469 6.70261 21.0594 6.111 21.5156C5.5194 21.9718 4.849 22.1999 4.0998 22.1999ZM3.9729 6.2561L2.6736 7.5437C2.5074 7.7099 2.3017 7.7911 2.0565 7.7873C1.8111 7.7833 1.5991 7.6921 1.4205 7.5137C1.2545 7.3475 1.1715 7.1406 1.1715 6.893C1.1715 6.6454 1.2545 6.4385 1.4205 6.2723L2.6898 4.973L1.4205 3.7037C1.2545 3.5375 1.1715 3.3318 1.1715 3.0866C1.1715 2.8412 1.2545 2.6292 1.4205 2.4506C1.5991 2.2646 1.813 2.1735 2.0622 2.1773C2.3114 2.1811 2.52521 2.2722 2.7036 2.4506L3.9729 3.7199L5.2305 2.4323C5.3967 2.2539 5.6044 2.1647 5.8536 2.1647C6.1028 2.1647 6.31671 2.2539 6.49531 2.4323C6.6813 2.6185 6.7743 2.8323 6.7743 3.0737C6.7743 3.3153 6.6813 3.5292 6.49531 3.7154L5.22601 4.973L6.5136 6.2606C6.692 6.4392 6.78011 6.65 6.7779 6.893C6.77551 7.136 6.6813 7.3468 6.49531 7.5254C6.31671 7.6914 6.1059 7.7756 5.8629 7.778C5.6199 7.7802 5.4091 7.6921 5.2305 7.5137L3.9729 6.2561Z" fill="#633A00"/>
</svg>
