<svg width="27" height="28" viewBox="0 0 27 28" fill="none" xmlns="http://www.w3.org/2000/svg">
<path d="M13.6865 12.4122L8.77429 5.30176H6.1543L12.2393 14.1091L13.0053 15.2171L18.2137 22.7622H20.8337L14.4493 13.5201L13.6865 12.4122Z" fill="black"/>
<path d="M24.5678 0.25H2.43159C1.2035 0.25 0.208008 1.27982 0.208008 2.55026V25.4497C0.208008 26.7202 1.2035 27.75 2.43159 27.75H24.5678C25.7959 27.75 26.7913 26.7202 26.7913 25.4497V2.55026C26.7913 1.27982 25.7959 0.25 24.5678 0.25ZM17.4091 24L12.1376 16.2337L5.5385 24H3.83301L11.3813 15.1192L3.83301 4H9.59029L14.5809 11.3524L20.8338 4H22.5392L15.3412 12.4695L23.1663 24H17.4091Z" fill="black"/>
</svg>
