<svg width="54" height="54" viewBox="0 0 54 54" fill="none" xmlns="http://www.w3.org/2000/svg">
<g clip-path="url(#clip0_2314_192)">
<path d="M32.5809 5.41726C32.3197 4.28972 31.6685 3.29072 30.7424 2.59654C29.8162 1.90235 28.6747 1.5576 27.5191 1.62311C26.3636 1.68863 25.2683 2.16021 24.4266 2.95463C23.5848 3.74904 23.0508 4.81525 22.9186 5.96509C22.7864 7.11493 23.0646 8.2745 23.7042 9.23919C24.3437 10.2039 25.3034 10.9117 26.4139 11.2377C27.5245 11.5637 28.7145 11.4869 29.774 11.021C30.8335 10.555 31.6943 9.72984 32.2046 8.69101C35.3112 9.39843 38.1991 10.8509 40.6192 12.9233C43.0393 14.9956 44.919 17.6255 46.0961 20.5862L49.0914 19.4083C47.7049 15.8966 45.4722 12.7819 42.5918 10.341C39.7114 7.90018 36.2725 6.2088 32.5809 5.41726ZM27.8188 8.18138C27.5996 8.18842 27.3811 8.15132 27.1765 8.07227C26.9718 7.99322 26.7851 7.87384 26.6276 7.72123C26.47 7.56861 26.3446 7.38588 26.2591 7.18387C26.1735 6.98187 26.1294 6.76473 26.1294 6.54535C26.1294 6.32597 26.1735 6.10883 26.2591 5.90683C26.3446 5.70483 26.47 5.52209 26.6276 5.36947C26.7851 5.21686 26.9718 5.09748 27.1765 5.01843C27.3811 4.93938 27.5996 4.90228 27.8188 4.90932C28.2529 4.90932 28.6693 5.08178 28.9763 5.38875C29.2832 5.69572 29.4557 6.11207 29.4557 6.54619C29.4557 6.98032 29.2832 7.39667 28.9763 7.70364C28.6693 8.01061 28.2529 8.18138 27.8188 8.18138ZM20.6183 9.54151L19.4083 6.54788C15.8966 7.93442 12.7819 10.1671 10.341 13.0475C7.90018 15.9279 6.2088 19.3668 5.41726 23.0584C4.28972 23.3197 3.29072 23.9708 2.59654 24.897C1.90235 25.8231 1.5576 26.9646 1.62311 28.1202C1.68863 29.2758 2.16021 30.371 2.95463 31.2128C3.74904 32.0545 4.81525 32.5886 5.96509 32.7207C7.11493 32.8529 8.2745 32.5747 9.23919 31.9352C10.2039 31.2956 10.9117 30.3359 11.2377 29.2254C11.5637 28.1148 11.4869 26.9248 11.021 25.8653C10.555 24.8059 9.72984 23.945 8.69101 23.4347C9.40134 20.3244 10.8586 17.434 12.9367 15.0133C15.0149 12.5926 17.6514 10.7145 20.6183 9.54151ZM6.54451 29.4574C6.32955 29.4574 6.1167 29.415 5.9181 29.3328C5.71951 29.2505 5.53906 29.13 5.38706 28.978C5.23506 28.826 5.11449 28.6455 5.03223 28.4469C4.94997 28.2483 4.90763 28.0355 4.90763 27.8205C4.90763 27.6055 4.94997 27.3927 5.03223 27.1941C5.11449 26.9955 5.23506 26.8151 5.38706 26.6631C5.53906 26.5111 5.71951 26.3905 5.9181 26.3082C6.1167 26.226 6.32955 26.1836 6.54451 26.1836C6.97863 26.1836 7.39498 26.3561 7.70195 26.6631C8.00893 26.97 8.18138 27.3864 8.18138 27.8205C8.18138 28.2546 8.00893 28.671 7.70195 28.978C7.39498 29.2849 6.97863 29.4574 6.54451 29.4574ZM27.8188 44.1842C26.9059 44.1872 26.0119 44.4445 25.2372 44.9274C24.4625 45.4103 23.8377 46.0996 23.433 46.9179C20.3259 46.2106 17.4376 44.758 15.0171 42.6853C12.5967 40.6127 10.7169 37.9823 9.53982 35.0211L6.54619 36.231C7.93725 39.7486 10.1774 42.8672 13.0669 45.3085C15.9563 47.7498 19.4051 49.4378 23.1056 50.2221C23.3182 51.123 23.7811 51.9454 24.4409 52.5947C25.1007 53.2439 25.9305 53.6934 26.8347 53.8914C27.739 54.0893 28.6807 54.0277 29.5514 53.7136C30.4221 53.3995 31.1864 52.8457 31.7559 52.116C32.3255 51.3864 32.6772 50.5106 32.7706 49.5897C32.864 48.6687 32.6951 47.7402 32.2836 46.9111C31.872 46.0819 31.2345 45.386 30.4446 44.9036C29.6546 44.4211 28.7444 44.1717 27.8188 44.1842ZM27.8188 50.73C27.3847 50.73 26.9683 50.5576 26.6614 50.2506C26.3544 49.9436 26.1819 49.5273 26.1819 49.0931C26.1819 48.659 26.3544 48.2427 26.6614 47.9357C26.9683 47.6287 27.3847 47.4563 27.8188 47.4563C28.2529 47.4563 28.6693 47.6287 28.9763 47.9357C29.2832 48.2427 29.4557 48.659 29.4557 49.0931C29.4557 49.5273 29.2832 49.9436 28.9763 50.2506C28.6693 50.5576 28.2529 50.73 27.8188 50.73ZM54.0004 27.8188C54.0034 26.9426 53.7719 26.0816 53.3299 25.3251C52.888 24.5685 52.2517 23.944 51.487 23.5163C50.7223 23.0886 49.8571 22.8732 48.9811 22.8926C48.1052 22.912 47.2503 23.1654 46.5053 23.6266C45.7603 24.0877 45.1523 24.7397 44.7442 25.5151C44.3362 26.2905 44.143 27.1609 44.1847 28.0361C44.2265 28.9112 44.5016 29.7593 44.9817 30.4923C45.4617 31.2253 46.129 31.8165 46.9146 32.2046C46.207 35.3114 44.7542 38.1994 42.6816 40.6195C40.609 43.0396 37.9787 44.9192 35.0177 46.0961L36.2293 49.0914C39.7469 47.7004 42.8655 45.4602 45.3068 42.5708C47.7481 39.6813 49.4362 36.2325 50.2204 32.532C51.2856 32.2801 52.2362 31.6795 52.921 30.8255C53.6059 29.9716 53.9858 28.9133 54.0004 27.8188ZM49.0898 29.4557C48.6556 29.4557 48.2393 29.2832 47.9323 28.9763C47.6253 28.6693 47.4529 28.2529 47.4529 27.8188C47.4529 27.3847 47.6253 26.9683 47.9323 26.6614C48.2393 26.3544 48.6556 26.1819 49.0898 26.1819C49.5239 26.1819 49.9402 26.3544 50.2472 26.6614C50.5542 26.9683 50.7266 27.3847 50.7266 27.8188C50.7266 28.2529 50.5542 28.6693 50.2472 28.9763C49.9402 29.2832 49.5239 29.4557 49.0898 29.4557Z" fill="#633A00"/>
<path d="M32.3826 27.5905C33.3137 26.6814 33.9526 25.5154 34.2179 24.2415C34.4831 22.9675 34.3627 21.6434 33.8719 20.4382C33.381 19.2331 32.5422 18.2015 31.4624 17.4753C30.3825 16.7492 29.1108 16.3613 27.8095 16.3613C26.5082 16.3613 25.2365 16.7492 24.1567 17.4753C23.0768 18.2015 22.238 19.2331 21.7471 20.4382C21.2563 21.6434 21.1359 22.9675 21.4011 24.2415C21.6664 25.5154 22.3053 26.6814 23.2364 27.5905C22.1284 28.3394 21.2208 29.3485 20.593 30.5293C19.9653 31.7101 19.6364 33.0268 19.6353 34.3642V37.6362H35.9989V34.3625C35.9961 33.0238 35.6649 31.7062 35.0344 30.5252C34.404 29.3443 33.4934 28.3377 32.3826 27.5905ZM24.5442 22.9077C24.5442 22.4778 24.6289 22.0521 24.7934 21.6549C24.9579 21.2577 25.1991 20.8968 25.5031 20.5928C25.807 20.2888 26.1679 20.0477 26.5651 19.8832C26.9623 19.7187 27.388 19.634 27.8179 19.634C28.2479 19.634 28.6736 19.7187 29.0708 19.8832C29.4679 20.0477 29.8288 20.2888 30.1328 20.5928C30.4368 20.8968 30.678 21.2577 30.8425 21.6549C31.007 22.0521 31.0917 22.4778 31.0917 22.9077C31.0917 23.776 30.7468 24.6087 30.1328 25.2226C29.5189 25.8366 28.6862 26.1815 27.8179 26.1815C26.9497 26.1815 26.117 25.8366 25.5031 25.2226C24.8891 24.6087 24.5442 23.776 24.5442 22.9077ZM22.9073 34.3625C22.8952 33.7101 23.0133 33.0618 23.2546 32.4555C23.4959 31.8492 23.8556 31.2971 24.3127 30.8314C24.7698 30.3658 25.3152 29.9959 25.9169 29.7434C26.5186 29.4909 27.1646 29.3608 27.8171 29.3608C28.4696 29.3608 29.1156 29.4909 29.7173 29.7434C30.319 29.9959 30.8644 30.3658 31.3215 30.8314C31.7786 31.2971 32.1383 31.8492 32.3796 32.4555C32.6209 33.0618 32.739 33.7101 32.7269 34.3625H22.9073Z" fill="#633A00"/>
</g>
<defs>
<clipPath id="clip0_2314_192">
<rect width="54" height="54" fill="white"/>
</clipPath>
</defs>
</svg>
